<svg width="597" height="248" viewBox="0 0 597 248" fill="none" xmlns="http://www.w3.org/2000/svg">
<g filter="url(#filter0_d_965:2648)">
<path d="M178 19H70C44.5949 19 24 39.5949 24 65V173C24 198.405 44.5949 219 70 219H178C203.405 219 224 198.405 224 173V65C224 39.5949 203.405 19 178 19Z" fill="url(#paint0_linear_965:2648)"/>
</g>
<path d="M167 140C190.748 140 210 120.748 210 97C210 73.2518 190.748 54 167 54C143.252 54 124 73.2518 124 97C124 120.748 143.252 140 167 140Z" fill="#FFD600"/>
<path d="M160 178C174.912 178 187 165.912 187 151C187 137.792 177.516 126.799 164.986 124.459C164.435 103.678 147.415 87 126.5 87C111.977 87 99.3315 95.0418 92.7745 106.915C90.1045 105.686 87.1323 105 84 105C73.6091 105 64.9809 112.547 63.2974 122.458C53.11 126.956 46 137.148 46 149C46 165.016 58.9837 178 75 178H160Z" fill="white" fill-opacity="0.89"/>
<path d="M54 35C54.5523 35 55 34.5523 55 34C55 33.4477 54.5523 33 54 33C53.4477 33 53 33.4477 53 34C53 34.5523 53.4477 35 54 35Z" fill="white" fill-opacity="0.31"/>
<path d="M72 46C72.5523 46 73 45.5523 73 45C73 44.4477 72.5523 44 72 44C71.4477 44 71 44.4477 71 45C71 45.5523 71.4477 46 72 46Z" fill="white" fill-opacity="0.31"/>
<path d="M100 29C100.552 29 101 28.5523 101 28C101 27.4477 100.552 27 100 27C99.4477 27 99 27.4477 99 28C99 28.5523 99.4477 29 100 29Z" fill="white" fill-opacity="0.31"/>
<path d="M100 46C100.552 46 101 45.5523 101 45C101 44.4477 100.552 44 100 44C99.4477 44 99 44.4477 99 45C99 45.5523 99.4477 46 100 46Z" fill="white" fill-opacity="0.31"/>
<path d="M84 65C84.5523 65 85 64.5523 85 64C85 63.4477 84.5523 63 84 63C83.4477 63 83 63.4477 83 64C83 64.5523 83.4477 65 84 65Z" fill="white" fill-opacity="0.31"/>
<path d="M46 48C46.5523 48 47 47.5523 47 47C47 46.4477 46.5523 46 46 46C45.4477 46 45 46.4477 45 47C45 47.5523 45.4477 48 46 48Z" fill="white" fill-opacity="0.31"/>
<path d="M188 37C188.552 37 189 36.5523 189 36C189 35.4477 188.552 35 188 35C187.448 35 187 35.4477 187 36C187 36.5523 187.448 37 188 37Z" fill="white" fill-opacity="0.31"/>
<path d="M158 34C158.552 34 159 33.5523 159 33C159 32.4477 158.552 32 158 32C157.448 32 157 32.4477 157 33C157 33.5523 157.448 34 158 34Z" fill="white" fill-opacity="0.31"/>
<path d="M125 39C125.552 39 126 38.5523 126 38C126 37.4477 125.552 37 125 37C124.448 37 124 37.4477 124 38C124 38.5523 124.448 39 125 39Z" fill="white" fill-opacity="0.31"/>
<path d="M275.125 115.54C270.295 115.54 266.44 113.98 263.56 110.86C260.71 107.74 259.285 103.87 259.285 99.25C259.285 94.84 260.74 91.03 263.65 87.82C266.56 84.58 270.295 82.96 274.855 82.96C277.285 82.96 279.385 83.305 281.155 83.995C282.955 84.685 284.695 85.72 286.375 87.1L284.845 88.855C281.965 86.335 278.59 85.075 274.72 85.075C270.97 85.075 267.865 86.455 265.405 89.215C262.945 91.975 261.715 95.32 261.715 99.25C261.715 103.42 262.93 106.84 265.36 109.51C267.79 112.15 271.075 113.47 275.215 113.47C277.105 113.47 278.935 113.14 280.705 112.48C282.505 111.79 284.02 110.92 285.25 109.87V100.825H274.72V98.665H287.5V110.815C285.94 112.195 284.08 113.335 281.92 114.235C279.79 115.105 277.525 115.54 275.125 115.54ZM315.183 111.985C312.933 114.355 310.128 115.54 306.768 115.54C303.408 115.54 300.603 114.37 298.353 112.03C296.133 109.66 295.023 106.825 295.023 103.525C295.023 100.255 296.148 97.435 298.398 95.065C300.678 92.695 303.498 91.51 306.858 91.51C310.218 91.51 313.008 92.695 315.228 95.065C317.478 97.405 318.603 100.225 318.603 103.525C318.603 106.795 317.463 109.615 315.183 111.985ZM306.858 113.47C309.408 113.47 311.598 112.495 313.428 110.545C315.288 108.595 316.218 106.255 316.218 103.525C316.218 100.765 315.288 98.425 313.428 96.505C311.598 94.555 309.378 93.58 306.768 93.58C304.188 93.58 301.983 94.555 300.153 96.505C298.323 98.425 297.408 100.765 297.408 103.525C297.408 106.285 298.323 108.64 300.153 110.59C301.983 112.51 304.218 113.47 306.858 113.47ZM345.092 111.985C342.842 114.355 340.037 115.54 336.677 115.54C333.317 115.54 330.512 114.37 328.262 112.03C326.042 109.66 324.932 106.825 324.932 103.525C324.932 100.255 326.057 97.435 328.307 95.065C330.587 92.695 333.407 91.51 336.767 91.51C340.127 91.51 342.917 92.695 345.137 95.065C347.387 97.405 348.512 100.225 348.512 103.525C348.512 106.795 347.372 109.615 345.092 111.985ZM336.767 113.47C339.317 113.47 341.507 112.495 343.337 110.545C345.197 108.595 346.127 106.255 346.127 103.525C346.127 100.765 345.197 98.425 343.337 96.505C341.507 94.555 339.287 93.58 336.677 93.58C334.097 93.58 331.892 94.555 330.062 96.505C328.232 98.425 327.317 100.765 327.317 103.525C327.317 106.285 328.232 108.64 330.062 110.59C331.892 112.51 334.127 113.47 336.767 113.47ZM366.091 115.54C363.151 115.54 360.556 114.445 358.306 112.255C356.056 110.035 354.931 107.125 354.931 103.525C354.931 99.955 356.056 97.06 358.306 94.84C360.556 92.62 363.151 91.51 366.091 91.51C369.991 91.51 373.141 93.34 375.541 97V82.15H377.746V115H375.541V109.87C373.051 113.65 369.901 115.54 366.091 115.54ZM359.926 110.68C361.696 112.51 363.826 113.425 366.316 113.425C368.806 113.425 370.981 112.495 372.841 110.635C374.731 108.745 375.676 106.36 375.676 103.48C375.676 100.63 374.731 98.275 372.841 96.415C370.981 94.555 368.806 93.625 366.316 93.625C363.736 93.625 361.591 94.525 359.881 96.325C358.171 98.095 357.316 100.495 357.316 103.525C357.316 106.465 358.186 108.85 359.926 110.68ZM410.28 115.225L399.3 83.5H405.285L412.8 106.855L420.54 83.41H425.22L432.96 106.855L440.475 83.5H446.28L435.3 115.225H430.53L422.79 92.59L415.05 115.225H410.28ZM460.4 115.54C456.92 115.54 454.01 114.385 451.67 112.075C449.36 109.765 448.205 106.78 448.205 103.12C448.205 99.67 449.3 96.745 451.49 94.345C453.68 91.945 456.455 90.745 459.815 90.745C463.415 90.745 466.205 91.975 468.185 94.435C470.195 96.865 471.2 99.895 471.2 103.525C471.2 104.185 471.17 104.695 471.11 105.055H453.65C453.95 106.945 454.715 108.43 455.945 109.51C457.175 110.56 458.69 111.085 460.49 111.085C462.83 111.085 464.975 110.14 466.925 108.25L470.12 111.085C467.66 114.055 464.42 115.54 460.4 115.54ZM453.605 101.455H465.8C465.62 99.625 465.005 98.125 463.955 96.955C462.905 95.785 461.51 95.2 459.77 95.2C458.12 95.2 456.74 95.785 455.63 96.955C454.52 98.095 453.845 99.595 453.605 101.455ZM497.728 115H492.328V112.075C490.408 114.355 487.843 115.495 484.633 115.495C482.263 115.495 480.253 114.85 478.603 113.56C476.983 112.24 476.173 110.41 476.173 108.07C476.173 105.52 477.058 103.585 478.828 102.265C480.598 100.945 482.923 100.285 485.803 100.285C488.113 100.285 490.303 100.615 492.373 101.275V100.825C492.373 99.175 491.863 97.915 490.843 97.045C489.853 96.175 488.413 95.74 486.523 95.74C484.363 95.74 482.098 96.235 479.728 97.225L478.243 92.86C481.183 91.54 484.198 90.88 487.288 90.88C490.738 90.88 493.333 91.75 495.073 93.49C496.843 95.23 497.728 97.705 497.728 100.915V115ZM492.463 106.405V105.055C490.843 104.425 489.028 104.11 487.018 104.11C485.308 104.11 483.973 104.44 483.013 105.1C482.053 105.76 481.573 106.69 481.573 107.89C481.573 108.97 482.008 109.825 482.878 110.455C483.748 111.085 484.843 111.4 486.163 111.4C487.993 111.4 489.493 110.935 490.663 110.005C491.863 109.075 492.463 107.875 492.463 106.405ZM513.294 115.405C508.734 115.405 506.454 113.08 506.454 108.43V95.92H503.439V91.24H506.454V84.715H511.899V91.24H518.289V95.92H511.899V107.575C511.899 109.555 512.874 110.545 514.824 110.545C515.994 110.545 517.119 110.275 518.199 109.735V114.19C516.759 115 515.124 115.405 513.294 115.405ZM524.911 115V82.15H530.356V94.93C532.246 92.14 534.721 90.745 537.781 90.745C540.421 90.745 542.491 91.57 543.991 93.22C545.491 94.87 546.241 97.09 546.241 99.88V115H540.796V101.5C540.796 99.64 540.346 98.215 539.446 97.225C538.576 96.205 537.331 95.695 535.711 95.695C534.121 95.695 532.831 96.22 531.841 97.27C530.851 98.32 530.356 99.76 530.356 101.59V115H524.911ZM564.831 115.54C561.351 115.54 558.441 114.385 556.101 112.075C553.791 109.765 552.636 106.78 552.636 103.12C552.636 99.67 553.731 96.745 555.921 94.345C558.111 91.945 560.886 90.745 564.246 90.745C567.846 90.745 570.636 91.975 572.616 94.435C574.626 96.865 575.631 99.895 575.631 103.525C575.631 104.185 575.601 104.695 575.541 105.055H558.081C558.381 106.945 559.146 108.43 560.376 109.51C561.606 110.56 563.121 111.085 564.921 111.085C567.261 111.085 569.406 110.14 571.356 108.25L574.551 111.085C572.091 114.055 568.851 115.54 564.831 115.54ZM558.036 101.455H570.231C570.051 99.625 569.436 98.125 568.386 96.955C567.336 95.785 565.941 95.2 564.201 95.2C562.551 95.2 561.171 95.785 560.061 96.955C558.951 98.095 558.276 99.595 558.036 101.455ZM582.225 115V91.24H587.67V96.595C589.35 92.545 592.155 90.61 596.085 90.79V96.55H595.77C593.31 96.55 591.345 97.36 589.875 98.98C588.405 100.57 587.67 102.895 587.67 105.955V115H582.225Z" fill="#1E243D"/>
<path d="M258.6 154V136.5H265.95C268.083 136.5 269.725 137.075 270.875 138.225C271.758 139.108 272.2 140.208 272.2 141.525C272.2 142.942 271.733 144.075 270.8 144.925C269.867 145.775 268.625 146.308 267.075 146.525L272.85 154H271.2L265.625 146.75H259.9V154H258.6ZM259.9 145.575H265.8C267.3 145.575 268.525 145.217 269.475 144.5C270.425 143.767 270.9 142.775 270.9 141.525C270.9 140.342 270.458 139.408 269.575 138.725C268.692 138.042 267.458 137.7 265.875 137.7H259.9V145.575ZM282.147 154.3C280.431 154.3 278.956 153.675 277.722 152.425C276.506 151.175 275.897 149.567 275.897 147.6C275.897 145.733 276.472 144.158 277.622 142.875C278.789 141.592 280.231 140.95 281.947 140.95C283.697 140.95 285.106 141.583 286.172 142.85C287.256 144.117 287.797 145.708 287.797 147.625C287.797 147.825 287.789 147.992 287.772 148.125H277.197C277.314 149.658 277.847 150.883 278.797 151.8C279.764 152.7 280.897 153.15 282.197 153.15C283.864 153.15 285.322 152.483 286.572 151.15L287.422 151.9C285.939 153.5 284.181 154.3 282.147 154.3ZM277.197 147.025H286.472C286.372 145.625 285.931 144.45 285.147 143.5C284.364 142.55 283.281 142.075 281.897 142.075C280.647 142.075 279.581 142.55 278.697 143.5C277.814 144.433 277.314 145.608 277.197 147.025ZM295.872 154.3C294.572 154.3 293.422 153.942 292.422 153.225C291.439 152.508 290.947 151.517 290.947 150.25C290.947 148.95 291.455 147.933 292.472 147.2C293.489 146.467 294.839 146.1 296.522 146.1C297.955 146.1 299.364 146.283 300.747 146.65V146.1C300.747 144.833 300.38 143.867 299.647 143.2C298.914 142.533 297.88 142.2 296.547 142.2C295.214 142.2 293.88 142.542 292.547 143.225L292.097 142.15C293.68 141.417 295.189 141.05 296.622 141.05C298.372 141.05 299.714 141.517 300.647 142.45C301.514 143.317 301.947 144.517 301.947 146.05V154H300.747V151.875C299.597 153.492 297.972 154.3 295.872 154.3ZM295.947 153.15C297.28 153.15 298.414 152.783 299.347 152.05C300.297 151.3 300.772 150.358 300.772 149.225V147.775C299.272 147.392 297.83 147.2 296.447 147.2C295.114 147.2 294.08 147.475 293.347 148.025C292.614 148.558 292.247 149.292 292.247 150.225C292.247 151.108 292.605 151.817 293.322 152.35C294.055 152.883 294.93 153.15 295.947 153.15ZM307.152 154V135.75H308.377V154H307.152ZM326.198 154.225C325.148 154.225 324.29 153.933 323.623 153.35C322.956 152.75 322.623 151.875 322.623 150.725V142.375H320.773V141.25H322.623V137.175H323.848V141.25H328.323V142.375H323.848V150.6C323.848 152.25 324.698 153.075 326.398 153.075C326.981 153.075 327.606 152.925 328.273 152.625V153.775C327.623 154.075 326.931 154.225 326.198 154.225ZM332.758 154V141.25H333.983V154H332.758ZM332.608 137.925V136.25H334.133V137.925H332.608ZM339.433 154V141.25H340.658V143.525C341.158 142.725 341.733 142.1 342.383 141.65C343.033 141.183 343.875 140.95 344.908 140.95C346.908 140.95 348.342 141.867 349.208 143.7C350.275 141.867 351.808 140.95 353.808 140.95C355.308 140.95 356.5 141.433 357.383 142.4C358.267 143.367 358.708 144.658 358.708 146.275V154H357.483V146.425C357.483 145.058 357.15 143.992 356.483 143.225C355.817 142.458 354.892 142.075 353.708 142.075C352.592 142.075 351.642 142.483 350.858 143.3C350.075 144.117 349.683 145.208 349.683 146.575V154H348.458V146.35C348.458 145.033 348.117 143.992 347.433 143.225C346.767 142.458 345.867 142.075 344.733 142.075C343.6 142.075 342.633 142.517 341.833 143.4C341.05 144.283 340.658 145.367 340.658 146.65V154H339.433ZM369.213 154.3C367.496 154.3 366.021 153.675 364.788 152.425C363.571 151.175 362.963 149.567 362.963 147.6C362.963 145.733 363.538 144.158 364.688 142.875C365.854 141.592 367.296 140.95 369.013 140.95C370.763 140.95 372.171 141.583 373.238 142.85C374.321 144.117 374.863 145.708 374.863 147.625C374.863 147.825 374.854 147.992 374.838 148.125H364.263C364.379 149.658 364.913 150.883 365.863 151.8C366.829 152.7 367.963 153.15 369.263 153.15C370.929 153.15 372.388 152.483 373.638 151.15L374.488 151.9C373.004 153.5 371.246 154.3 369.213 154.3ZM364.263 147.025H373.538C373.438 145.625 372.996 144.45 372.213 143.5C371.429 142.55 370.346 142.075 368.963 142.075C367.713 142.075 366.646 142.55 365.763 143.5C364.879 144.433 364.379 145.608 364.263 147.025ZM390.757 154.1L386.082 141.25H387.457L391.307 152.45L395.157 141.2H396.132L399.982 152.45L403.832 141.25H405.157L400.482 154.1H399.432L395.632 143.175L391.807 154.1H390.757ZM414.081 154.3C412.364 154.3 410.889 153.675 409.656 152.425C408.439 151.175 407.831 149.567 407.831 147.6C407.831 145.733 408.406 144.158 409.556 142.875C410.723 141.592 412.164 140.95 413.881 140.95C415.631 140.95 417.039 141.583 418.106 142.85C419.189 144.117 419.731 145.708 419.731 147.625C419.731 147.825 419.723 147.992 419.706 148.125H409.131C409.248 149.658 409.781 150.883 410.731 151.8C411.698 152.7 412.831 153.15 414.131 153.15C415.798 153.15 417.256 152.483 418.506 151.15L419.356 151.9C417.873 153.5 416.114 154.3 414.081 154.3ZM409.131 147.025H418.406C418.306 145.625 417.864 144.45 417.081 143.5C416.298 142.55 415.214 142.075 413.831 142.075C412.581 142.075 411.514 142.55 410.631 143.5C409.748 144.433 409.248 145.608 409.131 147.025ZM427.805 154.3C426.505 154.3 425.355 153.942 424.355 153.225C423.372 152.508 422.88 151.517 422.88 150.25C422.88 148.95 423.389 147.933 424.405 147.2C425.422 146.467 426.772 146.1 428.455 146.1C429.889 146.1 431.297 146.283 432.68 146.65V146.1C432.68 144.833 432.314 143.867 431.58 143.2C430.847 142.533 429.814 142.2 428.48 142.2C427.147 142.2 425.814 142.542 424.48 143.225L424.03 142.15C425.614 141.417 427.122 141.05 428.555 141.05C430.305 141.05 431.647 141.517 432.58 142.45C433.447 143.317 433.88 144.517 433.88 146.05V154H432.68V151.875C431.53 153.492 429.905 154.3 427.805 154.3ZM427.88 153.15C429.214 153.15 430.347 152.783 431.28 152.05C432.23 151.3 432.705 150.358 432.705 149.225V147.775C431.205 147.392 429.764 147.2 428.38 147.2C427.047 147.2 426.014 147.475 425.28 148.025C424.547 148.558 424.18 149.292 424.18 150.225C424.18 151.108 424.539 151.817 425.255 152.35C425.989 152.883 426.864 153.15 427.88 153.15ZM443.161 154.225C442.111 154.225 441.253 153.933 440.586 153.35C439.919 152.75 439.586 151.875 439.586 150.725V142.375H437.736V141.25H439.586V137.175H440.811V141.25H445.286V142.375H440.811V150.6C440.811 152.25 441.661 153.075 443.361 153.075C443.944 153.075 444.569 152.925 445.236 152.625V153.775C444.586 154.075 443.894 154.225 443.161 154.225ZM449.546 154V135.75H450.771V143.625C451.787 141.842 453.321 140.95 455.371 140.95C456.954 140.95 458.196 141.442 459.096 142.425C460.012 143.392 460.471 144.65 460.471 146.2V154H459.246V146.425C459.246 145.092 458.887 144.033 458.171 143.25C457.454 142.467 456.462 142.075 455.196 142.075C453.929 142.075 452.871 142.508 452.021 143.375C451.187 144.225 450.771 145.308 450.771 146.625V154H449.546ZM470.878 154.3C469.161 154.3 467.686 153.675 466.453 152.425C465.236 151.175 464.628 149.567 464.628 147.6C464.628 145.733 465.203 144.158 466.353 142.875C467.519 141.592 468.961 140.95 470.678 140.95C472.428 140.95 473.836 141.583 474.903 142.85C475.986 144.117 476.528 145.708 476.528 147.625C476.528 147.825 476.519 147.992 476.503 148.125H465.928C466.044 149.658 466.578 150.883 467.528 151.8C468.494 152.7 469.628 153.15 470.928 153.15C472.594 153.15 474.053 152.483 475.303 151.15L476.153 151.9C474.669 153.5 472.911 154.3 470.878 154.3ZM465.928 147.025H475.203C475.103 145.625 474.661 144.45 473.878 143.5C473.094 142.55 472.011 142.075 470.628 142.075C469.378 142.075 468.311 142.55 467.428 143.5C466.544 144.433 466.044 145.608 465.928 147.025ZM480.727 154V141.25H481.952V144.875C482.469 143.708 483.227 142.767 484.227 142.05C485.244 141.333 486.369 141 487.602 141.05V142.4H487.477C485.927 142.4 484.619 142.967 483.552 144.1C482.486 145.233 481.952 146.792 481.952 148.775V154H480.727Z" fill="#1E243D"/>
<defs>
<filter id="filter0_d_965:2648" x="0" y="0" width="248" height="248" filterUnits="userSpaceOnUse" color-interpolation-filters="sRGB">
<feFlood flood-opacity="0" result="BackgroundImageFix"/>
<feColorMatrix in="SourceAlpha" type="matrix" values="0 0 0 0 0 0 0 0 0 0 0 0 0 0 0 0 0 0 127 0" result="hardAlpha"/>
<feOffset dy="5"/>
<feGaussianBlur stdDeviation="12"/>
<feColorMatrix type="matrix" values="0 0 0 0 0 0 0 0 0 0 0 0 0 0 0 0 0 0 0.15 0"/>
<feBlend mode="normal" in2="BackgroundImageFix" result="effect1_dropShadow_965:2648"/>
<feBlend mode="normal" in="SourceGraphic" in2="effect1_dropShadow_965:2648" result="shape"/>
</filter>
<linearGradient id="paint0_linear_965:2648" x1="124" y1="19" x2="124" y2="258" gradientUnits="userSpaceOnUse">
<stop stop-color="#1A90B6"/>
<stop offset="1" stop-color="#96DFF6"/>
</linearGradient>
</defs>
</svg>
