<svg width="573" height="200" viewBox="0 0 573 200" fill="none" xmlns="http://www.w3.org/2000/svg">
<path d="M0 46C0 20.5949 20.5949 0 46 0H154C179.405 0 200 20.5949 200 46V154C200 179.405 179.405 200 154 200H46C20.5949 200 0 179.405 0 154V46Z" fill="url(#paint0_linear_965:2648)"/>
<path d="M143 121C166.748 121 186 101.748 186 78C186 54.2518 166.748 35 143 35C119.252 35 100 54.2518 100 78C100 101.748 119.252 121 143 121Z" fill="#FFD600"/>
<path d="M136 159C150.912 159 163 146.912 163 132C163 118.792 153.516 107.799 140.986 105.459C140.435 84.6775 123.415 68 102.5 68C87.9766 68 75.3315 76.0418 68.7745 87.9154C66.1045 86.6858 63.1323 86 60 86C49.6091 86 40.9809 93.5467 39.2974 103.458C29.11 107.956 22 118.148 22 130C22 146.016 34.9837 159 51 159H136Z" fill="white" fill-opacity="0.89"/>
<path d="M30 16C30.5523 16 31 15.5523 31 15C31 14.4477 30.5523 14 30 14C29.4477 14 29 14.4477 29 15C29 15.5523 29.4477 16 30 16Z" fill="white" fill-opacity="0.31"/>
<path d="M48 27C48.5523 27 49 26.5523 49 26C49 25.4477 48.5523 25 48 25C47.4477 25 47 25.4477 47 26C47 26.5523 47.4477 27 48 27Z" fill="white" fill-opacity="0.31"/>
<path d="M76 10C76.5523 10 77 9.55228 77 9C77 8.44772 76.5523 8 76 8C75.4477 8 75 8.44772 75 9C75 9.55228 75.4477 10 76 10Z" fill="white" fill-opacity="0.31"/>
<path d="M76 27C76.5523 27 77 26.5523 77 26C77 25.4477 76.5523 25 76 25C75.4477 25 75 25.4477 75 26C75 26.5523 75.4477 27 76 27Z" fill="white" fill-opacity="0.31"/>
<path d="M60 46C60.5523 46 61 45.5523 61 45C61 44.4477 60.5523 44 60 44C59.4477 44 59 44.4477 59 45C59 45.5523 59.4477 46 60 46Z" fill="white" fill-opacity="0.31"/>
<path d="M22 29C22.5523 29 23 28.5523 23 28C23 27.4477 22.5523 27 22 27C21.4477 27 21 27.4477 21 28C21 28.5523 21.4477 29 22 29Z" fill="white" fill-opacity="0.31"/>
<path d="M164 18C164.552 18 165 17.5523 165 17C165 16.4477 164.552 16 164 16C163.448 16 163 16.4477 163 17C163 17.5523 163.448 18 164 18Z" fill="white" fill-opacity="0.31"/>
<path d="M134 15C134.552 15 135 14.5523 135 14C135 13.4477 134.552 13 134 13C133.448 13 133 13.4477 133 14C133 14.5523 133.448 15 134 15Z" fill="white" fill-opacity="0.31"/>
<path d="M101 20C101.552 20 102 19.5523 102 19C102 18.4477 101.552 18 101 18C100.448 18 100 18.4477 100 19C100 19.5523 100.448 20 101 20Z" fill="white" fill-opacity="0.31"/>
<path d="M251.125 96.54C246.295 96.54 242.44 94.98 239.56 91.86C236.71 88.74 235.285 84.87 235.285 80.25C235.285 75.84 236.74 72.03 239.65 68.82C242.56 65.58 246.295 63.96 250.855 63.96C253.285 63.96 255.385 64.305 257.155 64.995C258.955 65.685 260.695 66.72 262.375 68.1L260.845 69.855C257.965 67.335 254.59 66.075 250.72 66.075C246.97 66.075 243.865 67.455 241.405 70.215C238.945 72.975 237.715 76.32 237.715 80.25C237.715 84.42 238.93 87.84 241.36 90.51C243.79 93.15 247.075 94.47 251.215 94.47C253.105 94.47 254.935 94.14 256.705 93.48C258.505 92.79 260.02 91.92 261.25 90.87V81.825H250.72V79.665H263.5V91.815C261.94 93.195 260.08 94.335 257.92 95.235C255.79 96.105 253.525 96.54 251.125 96.54ZM291.183 92.985C288.933 95.355 286.128 96.54 282.768 96.54C279.408 96.54 276.603 95.37 274.353 93.03C272.133 90.66 271.023 87.825 271.023 84.525C271.023 81.255 272.148 78.435 274.398 76.065C276.678 73.695 279.498 72.51 282.858 72.51C286.218 72.51 289.008 73.695 291.228 76.065C293.478 78.405 294.603 81.225 294.603 84.525C294.603 87.795 293.463 90.615 291.183 92.985ZM282.858 94.47C285.408 94.47 287.598 93.495 289.428 91.545C291.288 89.595 292.218 87.255 292.218 84.525C292.218 81.765 291.288 79.425 289.428 77.505C287.598 75.555 285.378 74.58 282.768 74.58C280.188 74.58 277.983 75.555 276.153 77.505C274.323 79.425 273.408 81.765 273.408 84.525C273.408 87.285 274.323 89.64 276.153 91.59C277.983 93.51 280.218 94.47 282.858 94.47ZM321.092 92.985C318.842 95.355 316.037 96.54 312.677 96.54C309.317 96.54 306.512 95.37 304.262 93.03C302.042 90.66 300.932 87.825 300.932 84.525C300.932 81.255 302.057 78.435 304.307 76.065C306.587 73.695 309.407 72.51 312.767 72.51C316.127 72.51 318.917 73.695 321.137 76.065C323.387 78.405 324.512 81.225 324.512 84.525C324.512 87.795 323.372 90.615 321.092 92.985ZM312.767 94.47C315.317 94.47 317.507 93.495 319.337 91.545C321.197 89.595 322.127 87.255 322.127 84.525C322.127 81.765 321.197 79.425 319.337 77.505C317.507 75.555 315.287 74.58 312.677 74.58C310.097 74.58 307.892 75.555 306.062 77.505C304.232 79.425 303.317 81.765 303.317 84.525C303.317 87.285 304.232 89.64 306.062 91.59C307.892 93.51 310.127 94.47 312.767 94.47ZM342.091 96.54C339.151 96.54 336.556 95.445 334.306 93.255C332.056 91.035 330.931 88.125 330.931 84.525C330.931 80.955 332.056 78.06 334.306 75.84C336.556 73.62 339.151 72.51 342.091 72.51C345.991 72.51 349.141 74.34 351.541 78V63.15H353.746V96H351.541V90.87C349.051 94.65 345.901 96.54 342.091 96.54ZM335.926 91.68C337.696 93.51 339.826 94.425 342.316 94.425C344.806 94.425 346.981 93.495 348.841 91.635C350.731 89.745 351.676 87.36 351.676 84.48C351.676 81.63 350.731 79.275 348.841 77.415C346.981 75.555 344.806 74.625 342.316 74.625C339.736 74.625 337.591 75.525 335.881 77.325C334.171 79.095 333.316 81.495 333.316 84.525C333.316 87.465 334.186 89.85 335.926 91.68ZM386.28 96.225L375.3 64.5H381.285L388.8 87.855L396.54 64.41H401.22L408.96 87.855L416.475 64.5H422.28L411.3 96.225H406.53L398.79 73.59L391.05 96.225H386.28ZM436.4 96.54C432.92 96.54 430.01 95.385 427.67 93.075C425.36 90.765 424.205 87.78 424.205 84.12C424.205 80.67 425.3 77.745 427.49 75.345C429.68 72.945 432.455 71.745 435.815 71.745C439.415 71.745 442.205 72.975 444.185 75.435C446.195 77.865 447.2 80.895 447.2 84.525C447.2 85.185 447.17 85.695 447.11 86.055H429.65C429.95 87.945 430.715 89.43 431.945 90.51C433.175 91.56 434.69 92.085 436.49 92.085C438.83 92.085 440.975 91.14 442.925 89.25L446.12 92.085C443.66 95.055 440.42 96.54 436.4 96.54ZM429.605 82.455H441.8C441.62 80.625 441.005 79.125 439.955 77.955C438.905 76.785 437.51 76.2 435.77 76.2C434.12 76.2 432.74 76.785 431.63 77.955C430.52 79.095 429.845 80.595 429.605 82.455ZM473.728 96H468.328V93.075C466.408 95.355 463.843 96.495 460.633 96.495C458.263 96.495 456.253 95.85 454.603 94.56C452.983 93.24 452.173 91.41 452.173 89.07C452.173 86.52 453.058 84.585 454.828 83.265C456.598 81.945 458.923 81.285 461.803 81.285C464.113 81.285 466.303 81.615 468.373 82.275V81.825C468.373 80.175 467.863 78.915 466.843 78.045C465.853 77.175 464.413 76.74 462.523 76.74C460.363 76.74 458.098 77.235 455.728 78.225L454.243 73.86C457.183 72.54 460.198 71.88 463.288 71.88C466.738 71.88 469.333 72.75 471.073 74.49C472.843 76.23 473.728 78.705 473.728 81.915V96ZM468.463 87.405V86.055C466.843 85.425 465.028 85.11 463.018 85.11C461.308 85.11 459.973 85.44 459.013 86.1C458.053 86.76 457.573 87.69 457.573 88.89C457.573 89.97 458.008 90.825 458.878 91.455C459.748 92.085 460.843 92.4 462.163 92.4C463.993 92.4 465.493 91.935 466.663 91.005C467.863 90.075 468.463 88.875 468.463 87.405ZM489.294 96.405C484.734 96.405 482.454 94.08 482.454 89.43V76.92H479.439V72.24H482.454V65.715H487.899V72.24H494.289V76.92H487.899V88.575C487.899 90.555 488.874 91.545 490.824 91.545C491.994 91.545 493.119 91.275 494.199 90.735V95.19C492.759 96 491.124 96.405 489.294 96.405ZM500.911 96V63.15H506.356V75.93C508.246 73.14 510.721 71.745 513.781 71.745C516.421 71.745 518.491 72.57 519.991 74.22C521.491 75.87 522.241 78.09 522.241 80.88V96H516.796V82.5C516.796 80.64 516.346 79.215 515.446 78.225C514.576 77.205 513.331 76.695 511.711 76.695C510.121 76.695 508.831 77.22 507.841 78.27C506.851 79.32 506.356 80.76 506.356 82.59V96H500.911ZM540.831 96.54C537.351 96.54 534.441 95.385 532.101 93.075C529.791 90.765 528.636 87.78 528.636 84.12C528.636 80.67 529.731 77.745 531.921 75.345C534.111 72.945 536.886 71.745 540.246 71.745C543.846 71.745 546.636 72.975 548.616 75.435C550.626 77.865 551.631 80.895 551.631 84.525C551.631 85.185 551.601 85.695 551.541 86.055H534.081C534.381 87.945 535.146 89.43 536.376 90.51C537.606 91.56 539.121 92.085 540.921 92.085C543.261 92.085 545.406 91.14 547.356 89.25L550.551 92.085C548.091 95.055 544.851 96.54 540.831 96.54ZM534.036 82.455H546.231C546.051 80.625 545.436 79.125 544.386 77.955C543.336 76.785 541.941 76.2 540.201 76.2C538.551 76.2 537.171 76.785 536.061 77.955C534.951 79.095 534.276 80.595 534.036 82.455ZM558.225 96V72.24H563.67V77.595C565.35 73.545 568.155 71.61 572.085 71.79V77.55H571.77C569.31 77.55 567.345 78.36 565.875 79.98C564.405 81.57 563.67 83.895 563.67 86.955V96H558.225Z" fill="#1E243D"/>
<path d="M234.6 135V117.5H241.95C244.083 117.5 245.725 118.075 246.875 119.225C247.758 120.108 248.2 121.208 248.2 122.525C248.2 123.942 247.733 125.075 246.8 125.925C245.867 126.775 244.625 127.308 243.075 127.525L248.85 135H247.2L241.625 127.75H235.9V135H234.6ZM235.9 126.575H241.8C243.3 126.575 244.525 126.217 245.475 125.5C246.425 124.767 246.9 123.775 246.9 122.525C246.9 121.342 246.458 120.408 245.575 119.725C244.692 119.042 243.458 118.7 241.875 118.7H235.9V126.575ZM258.147 135.3C256.431 135.3 254.956 134.675 253.722 133.425C252.506 132.175 251.897 130.567 251.897 128.6C251.897 126.733 252.472 125.158 253.622 123.875C254.789 122.592 256.231 121.95 257.947 121.95C259.697 121.95 261.106 122.583 262.172 123.85C263.256 125.117 263.797 126.708 263.797 128.625C263.797 128.825 263.789 128.992 263.772 129.125H253.197C253.314 130.658 253.847 131.883 254.797 132.8C255.764 133.7 256.897 134.15 258.197 134.15C259.864 134.15 261.322 133.483 262.572 132.15L263.422 132.9C261.939 134.5 260.181 135.3 258.147 135.3ZM253.197 128.025H262.472C262.372 126.625 261.931 125.45 261.147 124.5C260.364 123.55 259.281 123.075 257.897 123.075C256.647 123.075 255.581 123.55 254.697 124.5C253.814 125.433 253.314 126.608 253.197 128.025ZM271.872 135.3C270.572 135.3 269.422 134.942 268.422 134.225C267.439 133.508 266.947 132.517 266.947 131.25C266.947 129.95 267.455 128.933 268.472 128.2C269.489 127.467 270.839 127.1 272.522 127.1C273.955 127.1 275.364 127.283 276.747 127.65V127.1C276.747 125.833 276.38 124.867 275.647 124.2C274.914 123.533 273.88 123.2 272.547 123.2C271.214 123.2 269.88 123.542 268.547 124.225L268.097 123.15C269.68 122.417 271.189 122.05 272.622 122.05C274.372 122.05 275.714 122.517 276.647 123.45C277.514 124.317 277.947 125.517 277.947 127.05V135H276.747V132.875C275.597 134.492 273.972 135.3 271.872 135.3ZM271.947 134.15C273.28 134.15 274.414 133.783 275.347 133.05C276.297 132.3 276.772 131.358 276.772 130.225V128.775C275.272 128.392 273.83 128.2 272.447 128.2C271.114 128.2 270.08 128.475 269.347 129.025C268.614 129.558 268.247 130.292 268.247 131.225C268.247 132.108 268.605 132.817 269.322 133.35C270.055 133.883 270.93 134.15 271.947 134.15ZM283.152 135V116.75H284.377V135H283.152ZM302.198 135.225C301.148 135.225 300.29 134.933 299.623 134.35C298.956 133.75 298.623 132.875 298.623 131.725V123.375H296.773V122.25H298.623V118.175H299.848V122.25H304.323V123.375H299.848V131.6C299.848 133.25 300.698 134.075 302.398 134.075C302.981 134.075 303.606 133.925 304.273 133.625V134.775C303.623 135.075 302.931 135.225 302.198 135.225ZM308.758 135V122.25H309.983V135H308.758ZM308.608 118.925V117.25H310.133V118.925H308.608ZM315.433 135V122.25H316.658V124.525C317.158 123.725 317.733 123.1 318.383 122.65C319.033 122.183 319.875 121.95 320.908 121.95C322.908 121.95 324.342 122.867 325.208 124.7C326.275 122.867 327.808 121.95 329.808 121.95C331.308 121.95 332.5 122.433 333.383 123.4C334.267 124.367 334.708 125.658 334.708 127.275V135H333.483V127.425C333.483 126.058 333.15 124.992 332.483 124.225C331.817 123.458 330.892 123.075 329.708 123.075C328.592 123.075 327.642 123.483 326.858 124.3C326.075 125.117 325.683 126.208 325.683 127.575V135H324.458V127.35C324.458 126.033 324.117 124.992 323.433 124.225C322.767 123.458 321.867 123.075 320.733 123.075C319.6 123.075 318.633 123.517 317.833 124.4C317.05 125.283 316.658 126.367 316.658 127.65V135H315.433ZM345.213 135.3C343.496 135.3 342.021 134.675 340.788 133.425C339.571 132.175 338.963 130.567 338.963 128.6C338.963 126.733 339.538 125.158 340.688 123.875C341.854 122.592 343.296 121.95 345.013 121.95C346.763 121.95 348.171 122.583 349.238 123.85C350.321 125.117 350.863 126.708 350.863 128.625C350.863 128.825 350.854 128.992 350.838 129.125H340.263C340.379 130.658 340.913 131.883 341.863 132.8C342.829 133.7 343.963 134.15 345.263 134.15C346.929 134.15 348.388 133.483 349.638 132.15L350.488 132.9C349.004 134.5 347.246 135.3 345.213 135.3ZM340.263 128.025H349.538C349.438 126.625 348.996 125.45 348.213 124.5C347.429 123.55 346.346 123.075 344.963 123.075C343.713 123.075 342.646 123.55 341.763 124.5C340.879 125.433 340.379 126.608 340.263 128.025ZM366.757 135.1L362.082 122.25H363.457L367.307 133.45L371.157 122.2H372.132L375.982 133.45L379.832 122.25H381.157L376.482 135.1H375.432L371.632 124.175L367.807 135.1H366.757ZM390.081 135.3C388.364 135.3 386.889 134.675 385.656 133.425C384.439 132.175 383.831 130.567 383.831 128.6C383.831 126.733 384.406 125.158 385.556 123.875C386.723 122.592 388.164 121.95 389.881 121.95C391.631 121.95 393.039 122.583 394.106 123.85C395.189 125.117 395.731 126.708 395.731 128.625C395.731 128.825 395.723 128.992 395.706 129.125H385.131C385.248 130.658 385.781 131.883 386.731 132.8C387.698 133.7 388.831 134.15 390.131 134.15C391.798 134.15 393.256 133.483 394.506 132.15L395.356 132.9C393.873 134.5 392.114 135.3 390.081 135.3ZM385.131 128.025H394.406C394.306 126.625 393.864 125.45 393.081 124.5C392.298 123.55 391.214 123.075 389.831 123.075C388.581 123.075 387.514 123.55 386.631 124.5C385.748 125.433 385.248 126.608 385.131 128.025ZM403.805 135.3C402.505 135.3 401.355 134.942 400.355 134.225C399.372 133.508 398.88 132.517 398.88 131.25C398.88 129.95 399.389 128.933 400.405 128.2C401.422 127.467 402.772 127.1 404.455 127.1C405.889 127.1 407.297 127.283 408.68 127.65V127.1C408.68 125.833 408.314 124.867 407.58 124.2C406.847 123.533 405.814 123.2 404.48 123.2C403.147 123.2 401.814 123.542 400.48 124.225L400.03 123.15C401.614 122.417 403.122 122.05 404.555 122.05C406.305 122.05 407.647 122.517 408.58 123.45C409.447 124.317 409.88 125.517 409.88 127.05V135H408.68V132.875C407.53 134.492 405.905 135.3 403.805 135.3ZM403.88 134.15C405.214 134.15 406.347 133.783 407.28 133.05C408.23 132.3 408.705 131.358 408.705 130.225V128.775C407.205 128.392 405.764 128.2 404.38 128.2C403.047 128.2 402.014 128.475 401.28 129.025C400.547 129.558 400.18 130.292 400.18 131.225C400.18 132.108 400.539 132.817 401.255 133.35C401.989 133.883 402.864 134.15 403.88 134.15ZM419.161 135.225C418.111 135.225 417.253 134.933 416.586 134.35C415.919 133.75 415.586 132.875 415.586 131.725V123.375H413.736V122.25H415.586V118.175H416.811V122.25H421.286V123.375H416.811V131.6C416.811 133.25 417.661 134.075 419.361 134.075C419.944 134.075 420.569 133.925 421.236 133.625V134.775C420.586 135.075 419.894 135.225 419.161 135.225ZM425.546 135V116.75H426.771V124.625C427.787 122.842 429.321 121.95 431.371 121.95C432.954 121.95 434.196 122.442 435.096 123.425C436.012 124.392 436.471 125.65 436.471 127.2V135H435.246V127.425C435.246 126.092 434.887 125.033 434.171 124.25C433.454 123.467 432.462 123.075 431.196 123.075C429.929 123.075 428.871 123.508 428.021 124.375C427.187 125.225 426.771 126.308 426.771 127.625V135H425.546ZM446.878 135.3C445.161 135.3 443.686 134.675 442.453 133.425C441.236 132.175 440.628 130.567 440.628 128.6C440.628 126.733 441.203 125.158 442.353 123.875C443.519 122.592 444.961 121.95 446.678 121.95C448.428 121.95 449.836 122.583 450.903 123.85C451.986 125.117 452.528 126.708 452.528 128.625C452.528 128.825 452.519 128.992 452.503 129.125H441.928C442.044 130.658 442.578 131.883 443.528 132.8C444.494 133.7 445.628 134.15 446.928 134.15C448.594 134.15 450.053 133.483 451.303 132.15L452.153 132.9C450.669 134.5 448.911 135.3 446.878 135.3ZM441.928 128.025H451.203C451.103 126.625 450.661 125.45 449.878 124.5C449.094 123.55 448.011 123.075 446.628 123.075C445.378 123.075 444.311 123.55 443.428 124.5C442.544 125.433 442.044 126.608 441.928 128.025ZM456.727 135V122.25H457.952V125.875C458.469 124.708 459.227 123.767 460.227 123.05C461.244 122.333 462.369 122 463.602 122.05V123.4H463.477C461.927 123.4 460.619 123.967 459.552 125.1C458.486 126.233 457.952 127.792 457.952 129.775V135H456.727Z" fill="#1E243D"/>
<defs>
<linearGradient id="paint0_linear_965:2648" x1="100" y1="0" x2="100" y2="200" gradientUnits="userSpaceOnUse">
<stop stop-color="#1A90B6"/>
<stop offset="1" stop-color="#82D2EC"/>
</linearGradient>
</defs>
</svg>
